<?xml version="1.0" standalone="no"?>
<!DOCTYPE svg PUBLIC "-//W3C//DTD SVG 20010904//EN"
 "http://www.w3.org/TR/2001/REC-SVG-20010904/DTD/svg10.dtd">
<svg version="1.0" xmlns="http://www.w3.org/2000/svg"
 width="1280.000000pt" height="832.000000pt" viewBox="0 0 1280.000000 832.000000"
 preserveAspectRatio="xMidYMid meet">
<metadata>
Created by potrace 1.15, written by Peter Selinger 2001-2017
</metadata>
<g transform="translate(0.000000,832.000000) scale(0.100000,-0.100000)"
fill="#000000" stroke="none">
<path d="M8522 8309 c-68 -12 -106 -31 -163 -84 -25 -23 -64 -55 -88 -70 -42
-28 -42 -28 -121 -16 -84 13 -181 35 -215 50 -21 9 -131 30 -200 38 -52 6
-234 -60 -401 -145 -91 -47 -147 -85 -239 -162 l-120 -101 -71 6 c-78 6 -142
-10 -181 -47 -35 -33 -57 -111 -49 -179 5 -48 2 -65 -14 -92 -39 -63 -24 -112
48 -158 l47 -30 0 -88 0 -89 -59 -6 c-32 -3 -76 -6 -97 -6 -55 0 -211 -53
-303 -103 -82 -45 -91 -53 -101 -99 -5 -27 -7 -28 -75 -28 -96 0 -117 -10
-143 -69 l-22 -49 -60 -6 c-33 -3 -143 -3 -245 0 -102 3 -270 7 -375 8 -104 2
-218 7 -252 11 -50 6 -72 4 -108 -9 -73 -28 -77 -41 -77 -305 -1 -322 26 -441
112 -499 32 -22 43 -24 140 -20 l105 3 3 -37 c5 -54 31 -70 163 -96 171 -36
173 -37 239 -144 48 -78 59 -82 265 -89 151 -6 194 -11 265 -32 134 -40 253
-94 287 -130 37 -39 57 -118 108 -417 76 -449 90 -514 141 -688 19 -62 34
-121 34 -131 0 -29 -31 -48 -93 -60 -119 -22 -207 -79 -284 -185 -144 -198
-239 -320 -321 -410 -50 -55 -123 -137 -161 -181 -37 -44 -181 -192 -320 -330
-139 -137 -296 -299 -349 -360 -110 -126 -316 -341 -477 -498 -110 -108 -110
-108 -150 -102 -52 8 -80 36 -115 111 l-27 61 -96 31 c-158 53 -225 52 -275
-1 -35 -38 -158 -342 -203 -506 -17 -62 -29 -82 -65 -117 -24 -23 -46 -54 -50
-68 -3 -14 -10 -24 -14 -21 -21 13 -77 -99 -104 -206 -9 -35 -23 -73 -31 -85
-7 -11 -26 -50 -40 -85 -40 -96 -48 -102 -120 -96 -33 3 -114 10 -180 16 -66
6 -136 15 -155 21 -19 5 -57 10 -85 10 -59 1 -109 11 -185 39 -33 11 -203 41
-405 70 -437 63 -465 66 -770 91 -137 11 -297 25 -355 30 -132 12 -276 13
-315 2 -17 -5 -79 -5 -140 -1 -590 42 -715 35 -715 -43 0 -14 8 -18 38 -18 20
0 69 -7 107 -15 39 -8 101 -18 138 -21 37 -4 70 -11 74 -17 4 -6 -15 -8 -53
-3 -32 3 -74 2 -92 -3 -18 -6 -96 -16 -173 -22 l-139 -13 0 -43 c0 -55 -29
-49 340 -72 96 -6 249 -18 340 -27 91 -8 201 -17 245 -19 44 -2 188 -9 320
-14 311 -14 406 -24 725 -72 146 -22 409 -60 585 -85 176 -25 333 -50 348 -56
38 -15 17 -28 -44 -28 -26 0 -77 -9 -114 -21 -74 -23 -136 -75 -162 -136 l-14
-35 -67 6 c-83 8 -113 -6 -61 -28 20 -8 57 -20 83 -27 30 -7 51 -19 58 -33 6
-11 23 -31 39 -44 44 -36 38 -52 -21 -53 -27 -1 -54 -3 -60 -4 -5 -1 -13 -3
-17 -4 -23 -6 84 -33 166 -42 52 -6 117 -19 145 -29 161 -58 505 -78 694 -41
184 36 388 45 502 23 36 -7 151 -16 256 -19 l190 -6 36 49 c20 27 54 83 76
124 l41 75 78 -2 c43 -1 161 -9 263 -18 102 -9 273 -22 380 -30 107 -7 233
-18 280 -24 46 -6 117 -11 156 -11 39 0 93 -4 120 -9 27 -5 121 -14 209 -20
88 -6 205 -16 260 -21 55 -6 183 -17 285 -25 202 -16 492 -46 665 -70 61 -8
128 -16 150 -19 166 -18 323 -50 351 -71 17 -13 7 -14 -91 -15 -100 0 -151 -9
-129 -23 19 -11 126 -26 242 -33 120 -7 146 -14 123 -37 -6 -6 -11 -19 -11
-30 0 -16 6 -18 53 -12 35 4 67 1 97 -9 l45 -16 -57 6 c-39 4 -58 2 -58 -6 0
-16 44 -30 150 -45 79 -12 159 -13 465 -5 395 10 508 22 601 64 57 26 190 125
249 185 21 23 47 41 57 41 16 0 18 -10 18 -79 0 -52 4 -82 13 -89 20 -17 156
-42 227 -42 101 0 229 19 271 40 50 26 52 36 89 425 6 55 15 126 21 158 19 94
6 261 -25 335 -14 34 -26 66 -26 72 0 6 26 8 73 4 127 -11 317 36 464 116 101
54 309 202 399 283 57 52 132 157 163 230 11 26 24 47 29 47 25 0 52 43 52 83
1 23 6 54 13 68 14 32 111 139 126 139 11 0 16 -15 26 -74 10 -61 44 -143 72
-177 14 -16 49 -42 77 -57 45 -23 65 -27 167 -30 177 -6 260 19 625 186 71 33
154 70 184 84 72 33 144 98 164 148 15 39 15 45 -9 138 -39 155 -137 418 -210
567 -43 88 -125 314 -125 346 0 9 10 24 21 35 56 50 139 219 139 285 0 41 -20
76 -75 129 -81 77 -150 171 -204 277 -108 210 -271 429 -394 526 -138 110
-204 131 -447 142 -124 6 -151 4 -188 -10 -23 -10 -53 -15 -66 -11 -14 3 -55
41 -93 83 -37 43 -91 102 -119 133 -31 32 -71 93 -99 149 -42 85 -95 170 -158
256 -12 17 -40 55 -62 85 -22 30 -78 96 -125 146 -47 49 -105 117 -129 150
-25 32 -62 82 -83 110 -20 27 -71 81 -113 118 -41 37 -105 107 -142 154 -36
48 -87 110 -113 137 -26 28 -65 75 -87 105 -73 101 -170 176 -301 235 -108 48
-117 54 -120 81 -1 16 -8 39 -14 51 -6 11 -8 38 -6 60 6 45 -19 102 -64 150
-55 57 -6 89 56 36 l31 -26 3 23 c5 33 -26 59 -81 66 -41 6 -51 4 -72 -16 -36
-34 -33 -71 9 -108 46 -40 58 -65 46 -94 -21 -51 -59 -78 -109 -78 -67 0 -81
31 -31 68 41 31 39 60 -12 160 l-42 83 60 54 c131 116 170 281 114 475 -6 19
-21 103 -35 185 -41 239 -54 273 -138 363 -62 65 -101 88 -240 146 -59 24
-137 66 -175 94 -118 86 -160 99 -260 81z m-1622 -560 c0 -21 -50 -95 -79
-117 -17 -12 -44 -22 -61 -22 -27 0 -30 3 -30 30 0 38 23 84 52 104 26 18 118
22 118 5z m-100 -209 c0 -5 -9 -10 -20 -10 -11 0 -20 5 -20 10 0 6 9 10 20 10
11 0 20 -4 20 -10z m-56 -86 c7 -19 -4 -46 -17 -41 -18 6 -31 33 -24 50 7 19
33 13 41 -9z m492 -1396 c59 -33 88 -69 98 -123 4 -21 21 -47 48 -70 39 -36
43 -37 94 -32 68 7 138 39 250 114 101 68 146 93 169 93 23 0 19 -47 -9 -83
-46 -62 -85 -143 -95 -200 -6 -31 -15 -66 -21 -77 -6 -11 -28 -90 -50 -177
-23 -86 -46 -166 -54 -178 -7 -11 -22 -46 -33 -77 -28 -76 -104 -215 -154
-277 l-40 -51 -98 85 c-55 47 -136 130 -181 185 l-82 100 20 63 c27 81 58 238
87 427 4 29 -21 270 -29 278 -6 5 12 32 20 32 3 0 29 -14 60 -32z m-163 -125
c14 -8 4 -175 -24 -383 -12 -96 -24 -177 -26 -179 -6 -9 -65 55 -88 94 -18 33
-23 57 -24 130 -2 93 -26 223 -54 286 l-16 37 72 15 c67 15 137 15 160 0z
m3998 -1339 c47 -70 48 -72 29 -89 -24 -22 -42 -10 -70 46 -17 32 -27 57 -65
154 -15 37 54 -35 106 -111z m-2305 -351 c34 -28 88 -66 120 -83 33 -18 64
-36 70 -41 6 -5 42 -20 80 -34 84 -32 171 -74 185 -91 6 -7 17 -50 25 -95 12
-72 20 -91 58 -139 84 -107 176 -325 176 -414 0 -16 -12 -55 -26 -87 l-27 -59
-66 36 c-36 20 -95 57 -131 82 -36 25 -110 69 -165 97 -91 47 -141 78 -345
210 -71 46 -244 145 -382 219 -49 26 -88 53 -88 60 0 12 199 266 319 409 l55
64 40 -41 c23 -23 69 -64 102 -93z m-2060 -1541 c12 -9 57 -44 100 -76 43 -33
93 -74 109 -90 87 -88 361 -253 565 -341 36 -16 81 -43 100 -61 19 -17 64 -46
99 -64 35 -18 123 -67 195 -110 72 -42 151 -89 176 -103 25 -13 101 -58 170
-97 69 -40 145 -85 170 -99 25 -14 54 -33 64 -43 11 -10 23 -18 27 -18 4 0 25
-30 47 -67 22 -38 59 -89 82 -116 34 -38 46 -63 61 -124 11 -43 23 -81 27 -85
4 -4 25 -14 47 -21 49 -17 58 -46 20 -71 -41 -27 -49 -60 -26 -111 10 -23 24
-46 30 -49 22 -14 11 -83 -23 -153 -19 -37 -46 -93 -60 -123 -34 -74 -50 -93
-83 -93 -36 -1 -244 20 -393 40 -63 8 -151 19 -195 23 -44 5 -181 20 -305 34
-124 13 -256 28 -295 31 -38 3 -106 11 -150 16 -43 6 -235 14 -425 19 -190 5
-363 13 -385 19 -36 10 -432 59 -770 96 -71 8 -177 19 -235 26 -58 6 -168 17
-245 24 -77 8 -194 19 -260 25 -66 7 -125 16 -131 21 -7 6 -13 69 -17 167 -3
86 -8 167 -12 179 -6 18 2 29 53 65 33 24 66 53 73 64 8 12 46 50 84 84 39 34
91 81 116 104 31 28 81 56 155 86 60 24 131 60 159 78 73 49 90 57 279 128
179 68 307 133 466 239 115 77 203 174 240 266 14 35 46 106 72 159 44 93 48
98 100 124 57 29 85 28 124 -2z m-4715 -1638 c85 -9 224 -18 309 -19 85 -1
178 -7 205 -13 28 -5 91 -17 140 -26 50 -9 97 -19 106 -22 9 -2 54 -9 99 -14
93 -11 120 -24 96 -48 -12 -13 -28 -13 -108 -4 -51 7 -176 18 -278 27 -102 8
-207 19 -235 25 -27 5 -129 18 -225 29 -255 30 -400 57 -400 76 0 10 140 5
291 -11z m2929 -314 c296 -16 471 -30 560 -46 47 -8 123 -19 170 -24 198 -22
333 -39 338 -44 3 -3 -3 -6 -14 -6 -26 1 -331 26 -539 45 -93 8 -258 22 -365
31 -345 27 -353 28 -358 42 -4 14 -15 14 208 2z m-820 -274 c0 -45 -30 -55
-121 -40 -82 13 -98 19 -86 31 13 13 103 32 155 32 49 1 52 -1 52 -23z"/>
</g>
</svg>
