<?xml version="1.0" standalone="no"?>
<!DOCTYPE svg PUBLIC "-//W3C//DTD SVG 20010904//EN"
 "http://www.w3.org/TR/2001/REC-SVG-20010904/DTD/svg10.dtd">
<svg version="1.0" xmlns="http://www.w3.org/2000/svg"
 width="1280.000000pt" height="666.000000pt" viewBox="0 0 1280.000000 666.000000"
 preserveAspectRatio="xMidYMid meet">
<metadata>
Created by potrace 1.15, written by Peter Selinger 2001-2017
</metadata>
<g transform="translate(0.000000,666.000000) scale(0.100000,-0.100000)"
fill="#000000" stroke="none">
<path d="M6609 6387 c-66 -44 -74 -169 -24 -372 14 -55 25 -123 25 -151 0 -91
-45 -312 -76 -375 l-13 -26 -73 14 c-107 21 -308 12 -419 -18 l-87 -23 -53 34
c-339 214 -490 294 -664 350 -55 18 -138 52 -185 75 -109 55 -222 95 -265 95
-24 0 -39 -7 -54 -26 -35 -44 -44 -99 -37 -224 9 -160 21 -227 66 -361 48
-144 84 -218 165 -334 35 -50 70 -107 78 -128 15 -36 15 -39 -14 -104 -17 -36
-58 -110 -92 -162 -68 -107 -138 -251 -188 -386 -18 -49 -34 -92 -36 -94 -1
-2 -19 9 -39 25 -179 142 -241 180 -355 219 -40 14 -112 30 -159 35 -117 13
-120 13 -120 -10 0 -18 7 -20 63 -20 173 -1 344 -76 532 -236 36 -31 64 -61
62 -68 -3 -6 -9 -10 -15 -9 -6 2 -10 -10 -9 -25 2 -25 -7 -32 -132 -94 -84
-43 -146 -68 -167 -68 -34 0 -68 24 -61 44 2 6 57 39 122 73 134 71 151 83
113 83 -35 0 -86 -19 -210 -79 -87 -43 -115 -62 -152 -106 l-46 -53 -188 50
c-145 38 -205 50 -269 51 -78 1 -87 -1 -160 -39 -80 -41 -101 -64 -61 -64 47
-1 108 -37 124 -75 13 -32 12 -44 -11 -143 -55 -240 -70 -275 -129 -311 -37
-23 -100 -29 -94 -9 3 7 19 16 38 19 61 13 86 51 125 194 57 209 58 243 5 270
-39 20 -81 20 -74 0 9 -24 -4 -18 -49 20 -114 97 -308 98 -511 2 -112 -53
-177 -100 -273 -196 -84 -84 -122 -140 -190 -276 -105 -210 -160 -397 -216
-733 -20 -121 -40 -209 -48 -217 -8 -7 -207 -127 -444 -265 -236 -139 -441
-262 -454 -274 -33 -30 -78 -127 -97 -214 -20 -92 -15 -326 10 -441 69 -314
244 -604 466 -773 83 -64 242 -140 345 -166 257 -66 386 -53 580 59 64 36 436
333 1159 924 l98 80 -6 95 c-15 266 -124 538 -318 793 -121 159 -308 326 -461
411 -91 51 -242 99 -290 93 -24 -3 -112 -49 -245 -126 l-207 -121 -3 77 c-4
98 13 271 38 384 52 230 189 499 328 642 214 218 470 313 644 238 75 -32 154
-127 134 -160 -11 -18 -78 -31 -155 -31 -73 0 -73 0 -123 45 -28 25 -61 48
-74 51 -32 8 -70 -2 -78 -21 -6 -17 0 -20 57 -30 20 -3 53 -19 71 -36 42 -36
121 -162 154 -242 l23 -58 -21 -44 c-27 -57 -46 -63 -68 -24 -48 88 -154 192
-210 206 -26 6 -59 -18 -48 -36 4 -6 24 -20 44 -30 87 -45 197 -185 171 -218
-33 -39 -251 -42 -348 -4 -30 11 -56 20 -57 18 -1 -1 2 -12 7 -25 5 -13 25
-29 46 -38 73 -28 85 -38 107 -94 13 -30 35 -74 49 -97 15 -24 27 -45 27 -47
0 -3 -43 -31 -95 -62 -53 -31 -92 -60 -88 -64 4 -4 44 -19 88 -34 170 -59 332
-172 500 -348 260 -272 414 -584 454 -921 5 -43 12 -81 15 -84 6 -6 34 15 184
140 94 78 93 74 67 218 -49 281 -218 588 -462 835 -125 126 -327 249 -517 313
-66 22 -82 31 -75 42 5 11 -6 27 -40 57 -27 22 -54 55 -59 72 l-11 30 65 0 64
0 0 -51 c0 -39 3 -50 14 -46 7 3 133 75 278 160 381 223 371 219 500 225 136
6 210 -8 318 -61 70 -34 104 -60 198 -152 167 -161 274 -331 345 -550 33 -101
43 -147 58 -265 8 -73 15 -98 30 -108 11 -7 33 -41 50 -75 62 -124 158 -272
186 -288 15 -9 114 -68 218 -131 255 -155 348 -206 495 -271 317 -139 745
-266 1205 -358 138 -27 172 -30 250 -25 188 14 310 37 520 97 38 11 44 10 141
-39 139 -70 261 -143 309 -186 l40 -35 -1586 -1 -1586 0 -124 107 c-68 59
-167 146 -220 193 l-96 87 -84 -14 c-46 -8 -114 -12 -152 -10 -84 5 -143 39
-204 117 -101 129 -123 143 -123 78 0 -49 37 -113 96 -167 78 -71 121 -82 308
-80 l150 2 65 -49 c49 -37 84 -77 139 -157 l73 -107 -764 0 -764 0 -23 -25
-23 -25 4756 0 4757 0 0 25 0 25 -1175 0 -1175 0 0 38 c0 20 5 85 11 143 10
93 9 122 -10 246 -59 386 -172 691 -345 926 -165 225 -234 338 -402 654 -165
311 -310 550 -417 686 -156 199 -146 182 -162 288 -17 118 -57 244 -136 431
-73 175 -118 260 -214 404 -159 238 -401 447 -685 589 -80 40 -182 144 -358
365 -230 288 -317 384 -411 456 -105 80 -260 158 -366 183 -202 49 -293 54
-346 18z m296 -62 c74 -21 133 -65 219 -161 175 -199 311 -446 332 -606 4 -28
3 -48 -3 -48 -5 0 -24 16 -43 35 -19 19 -40 35 -47 35 -22 0 -71 28 -181 102
-57 39 -105 68 -107 66 -2 -1 57 -77 131 -168 73 -91 134 -169 134 -174 0 -4
-8 -5 -17 -1 -49 21 -416 145 -420 142 -2 -2 18 -12 44 -22 100 -37 230 -106
273 -144 l45 -40 -40 -17 c-35 -14 -53 -15 -135 -6 -52 5 -99 7 -104 4 -5 -2
19 -30 54 -61 l63 -56 -139 -41 -138 -40 -19 -64 c-18 -64 -58 -130 -78 -130
-5 0 -19 16 -30 35 -45 76 -119 35 -263 -148 -70 -90 -149 -173 -243 -259
-186 -171 -259 -266 -318 -416 -42 -108 -45 -212 -4 -212 22 0 91 78 217 244
75 99 152 198 171 219 34 38 35 38 92 32 53 -6 58 -5 91 24 24 21 47 59 73
121 57 139 102 184 155 156 99 -52 85 -50 145 -22 70 32 180 141 260 259 157
231 173 245 243 213 35 -16 43 -16 66 -4 27 14 106 112 106 130 0 16 118 2
185 -21 31 -11 95 -45 141 -75 53 -34 105 -59 138 -67 47 -10 58 -9 99 9 25
11 66 39 92 63 45 41 46 42 52 19 10 -36 52 -111 93 -165 22 -28 131 -140 244
-248 224 -216 287 -291 346 -412 40 -82 80 -223 80 -285 0 -51 -18 -108 -41
-131 -18 -18 -28 -20 -83 -14 l-63 7 -20 -35 c-18 -29 -30 -37 -73 -46 -28 -6
-67 -11 -87 -11 -25 0 -50 -10 -83 -35 -45 -33 -47 -34 -43 -11 4 18 -3 29
-29 47 l-33 24 -300 0 -300 0 -133 33 c-149 37 -152 36 -283 -19 -67 -29 -83
-32 -168 -30 -51 0 -170 -6 -263 -14 -199 -17 -280 -41 -431 -124 -153 -85
-190 -131 -251 -314 -39 -118 -61 -163 -100 -216 -25 -34 -32 -73 -20 -105 10
-25 55 -19 104 14 33 22 57 30 90 30 60 0 369 45 445 65 99 26 218 89 260 137
46 55 86 138 121 256 27 92 28 92 60 92 19 0 76 21 135 50 120 59 145 61 249
20 45 -18 94 -30 121 -30 43 0 49 -3 88 -50 37 -44 47 -50 80 -50 20 0 77 14
127 30 49 17 112 33 141 36 47 6 54 4 76 -20 17 -19 34 -26 60 -26 20 0 38 -4
41 -8 3 -5 -10 -24 -29 -42 -19 -19 -35 -37 -35 -41 0 -3 24 -17 53 -30 46
-21 67 -24 192 -24 77 0 182 6 234 14 82 13 101 19 156 57 l62 42 -5 -47 c-2
-27 0 -51 5 -54 5 -3 31 5 59 17 27 13 69 27 94 30 40 6 50 3 88 -25 23 -17
42 -36 42 -43 0 -20 -89 -247 -131 -334 -54 -112 -66 -123 -127 -115 -46 5
-50 4 -70 -25 -12 -16 -38 -72 -57 -123 -45 -116 -68 -153 -103 -168 -16 -7
-62 -45 -102 -86 -77 -78 -90 -83 -147 -63 -29 11 -35 10 -56 -10 -13 -12 -43
-56 -66 -96 -38 -67 -45 -91 -72 -237 -16 -90 -28 -166 -27 -170 2 -4 68 51
148 122 291 261 301 268 397 301 156 53 184 78 233 201 15 38 45 82 84 125 91
100 113 131 142 208 34 92 83 183 104 194 13 7 22 4 33 -8 20 -22 249 -473
272 -535 18 -47 18 -49 -2 -75 -32 -44 -120 -100 -176 -112 -29 -6 -122 -17
-208 -25 -150 -13 -333 -51 -387 -79 -14 -7 -37 -31 -52 -52 -19 -28 -52 -53
-124 -92 -53 -30 -96 -55 -94 -57 2 -2 145 17 319 42 l316 46 68 -28 c38 -15
97 -32 132 -38 l63 -10 94 48 94 49 62 -23 c45 -17 73 -21 104 -17 102 16 95
19 143 -69 74 -139 154 -325 204 -475 65 -199 67 -211 35 -245 -14 -15 -26
-32 -26 -36 0 -5 -9 -9 -21 -9 -13 0 -61 41 -134 118 -87 90 -115 125 -120
152 -10 54 -72 177 -108 213 -22 21 -57 40 -105 55 -48 15 -109 48 -182 97
-130 87 -186 105 -276 86 -87 -17 -112 -14 -185 24 -77 40 -115 44 -151 16
-13 -11 -42 -22 -64 -26 -42 -8 -237 -96 -247 -112 -4 -6 40 1 96 14 56 13
138 26 182 29 75 5 87 3 199 -36 124 -43 215 -85 255 -117 22 -18 23 -22 11
-58 -12 -37 -11 -40 13 -61 14 -12 63 -36 109 -53 160 -59 189 -79 224 -147
20 -38 34 -85 39 -124 6 -54 12 -67 45 -99 21 -20 84 -61 140 -90 89 -47 107
-60 143 -111 36 -51 50 -62 102 -81 36 -13 75 -37 98 -59 31 -31 37 -45 37
-79 l0 -41 -418 0 -418 0 -67 77 c-45 53 -73 96 -88 138 -33 92 -99 214 -138
256 -24 24 -54 42 -87 52 -74 22 -100 38 -178 107 -38 34 -80 66 -93 71 -13 5
-59 9 -102 9 -43 0 -100 7 -127 15 -57 17 -131 19 -170 4 -28 -10 -28 -10 -10
10 10 11 15 24 12 29 -3 6 3 31 14 58 11 26 19 49 16 51 -2 3 -54 -39 -115
-91 -277 -239 -492 -365 -797 -465 -140 -47 -458 -111 -545 -111 -100 0 -790
206 -1110 331 -168 66 -830 399 -829 417 0 4 46 40 102 81 99 71 103 73 133
61 74 -31 158 -42 228 -31 60 10 70 9 85 -5 24 -24 102 -58 207 -90 80 -25
109 -28 265 -32 299 -6 390 17 680 172 171 92 329 159 375 159 17 1 93 -5 170
-12 105 -9 166 -10 244 -2 57 6 109 11 116 11 7 0 54 -27 105 -61 66 -43 96
-57 103 -50 12 12 4 20 -90 83 -35 22 -63 42 -63 44 0 2 34 19 76 39 222 102
450 306 626 560 71 103 214 372 203 383 -11 11 -59 -47 -120 -146 -34 -53 -69
-98 -78 -100 -12 -3 -22 8 -33 33 -10 25 -26 41 -50 51 l-34 14 16 31 c14 29
14 32 -3 51 -48 53 -117 62 -317 42 -207 -22 -295 -12 -551 57 -192 52 -355
75 -355 50 0 -6 24 -29 53 -52 28 -23 58 -52 65 -65 13 -24 41 -35 144 -54 32
-6 93 -29 135 -51 47 -23 92 -39 113 -39 29 0 43 -8 81 -50 41 -45 50 -50 87
-50 23 0 81 13 129 30 58 20 106 30 145 30 59 0 59 0 75 -37 11 -27 17 -84 21
-196 l5 -158 -29 -30 c-43 -45 -208 -153 -295 -193 -42 -19 -112 -46 -156 -59
l-79 -25 -129 44 c-191 64 -325 85 -595 91 -133 3 -288 1 -380 -6 -251 -19
-270 -22 -270 -39 0 -13 13 -14 85 -8 47 3 124 9 172 13 l87 6 -21 -29 c-11
-16 -27 -45 -35 -64 -19 -44 -104 -138 -168 -185 -27 -20 -104 -63 -172 -97
-144 -71 -207 -82 -318 -54 -116 29 -186 70 -237 139 -46 62 -96 159 -108 209
-6 23 -2 30 32 51 94 60 170 208 149 291 -8 31 -23 34 -121 20 -44 -6 -84 -9
-89 -6 -5 2 -6 41 -2 84 5 58 12 87 28 109 21 28 21 29 3 88 -15 52 -17 81
-11 220 7 157 7 162 -17 214 -13 29 -42 70 -63 91 l-39 37 -17 -21 c-10 -12
-18 -30 -18 -40 0 -26 -54 -76 -96 -90 -22 -8 -66 -10 -108 -7 -174 12 -334
131 -323 242 5 53 55 154 88 178 15 11 51 21 87 24 62 6 62 6 62 37 -1 46 -32
107 -75 145 l-38 33 -11 -32 c-9 -28 -25 -40 -101 -78 -119 -60 -245 -112
-272 -112 -29 0 -53 26 -53 56 0 22 19 33 167 105 181 89 184 92 72 106 l-64
8 1 51 c2 62 55 198 200 512 67 144 102 232 98 244 -3 10 -45 103 -93 206 -92
194 -171 385 -191 460 -37 142 -49 288 -27 332 16 32 38 28 97 -15 25 -18 66
-41 91 -53 78 -34 248 -130 368 -209 149 -98 291 -241 291 -294 0 -33 -90
-119 -125 -119 -48 0 -113 -39 -192 -116 -42 -41 -74 -76 -71 -79 2 -2 19 0
38 5 60 17 120 -11 120 -56 0 -13 -13 -56 -29 -96 -42 -109 -43 -119 -20 -230
19 -93 21 -124 15 -318 -3 -118 -8 -225 -11 -236 -8 -25 27 -64 56 -64 29 0
38 53 54 318 10 156 20 261 27 270 6 7 29 22 50 33 58 29 65 54 44 150 -9 44
-14 94 -11 110 4 17 42 66 94 122 48 51 93 102 99 113 10 17 17 13 86 -55 88
-88 89 -83 -32 -158 -74 -46 -97 -77 -85 -110 4 -10 26 -47 50 -82 69 -101 61
-125 -66 -211 -97 -64 -123 -93 -140 -155 -14 -50 -14 -239 -1 -325 18 -113
52 -252 59 -243 5 4 22 50 40 100 73 214 178 427 244 493 17 18 70 54 117 80
87 48 100 63 119 135 23 85 133 201 381 401 221 178 240 199 240 264 0 67 -16
80 -94 80 -65 0 -105 -18 -197 -91 -68 -53 -51 -30 41 58 50 47 102 105 116
128 72 123 112 344 93 512 -9 80 -17 108 -70 245 -26 70 -20 102 24 124 67 36
145 38 252 9z m-3155 -2390 l85 -25 -92 6 c-54 4 -128 1 -178 -6 -48 -7 -88
-10 -90 -8 -9 9 121 57 155 57 19 1 73 -10 120 -24z m3385 -213 c5 -29 -1 -60
-24 -126 -50 -145 -98 -208 -193 -257 -32 -16 -60 -29 -62 -29 -3 0 5 21 17
48 17 37 22 66 22 132 0 96 -19 150 -74 212 -17 20 -31 38 -31 41 0 6 85 11
252 15 l86 2 7 -38z m-3170 -9 c-34 -51 -57 -94 -54 -97 2 -1 42 -12 89 -23
76 -18 304 -102 297 -109 -6 -6 -488 119 -485 126 3 7 159 129 167 130 2 0 -5
-12 -14 -27z m2781 -15 c68 -47 98 -108 102 -213 3 -68 0 -89 -18 -129 -28
-58 -46 -71 -130 -90 -101 -24 -121 -22 -161 22 -56 60 -67 80 -22 40 98 -86
210 -62 269 57 48 99 23 222 -60 289 -33 27 -46 31 -99 31 -57 -1 -59 0 -31
12 51 22 98 16 150 -19z m-205 -17 c-13 -10 -32 -29 -43 -42 -17 -22 -18 -22
-9 -2 11 21 57 63 70 63 3 0 -5 -9 -18 -19z m-3271 -87 c0 -3 -5 -14 -10 -25
-16 -29 8 -24 42 8 16 15 28 21 28 14 0 -14 -57 -71 -70 -71 -11 0 -50 54 -50
69 0 6 14 11 30 11 17 0 30 -3 30 -6z m3355 -59 c19 -18 25 -35 25 -65 0 -90
-106 -126 -145 -49 -22 41 -18 73 11 108 33 39 74 41 109 6z m-220 -110 c9
-42 29 -91 50 -122 19 -29 35 -55 35 -58 0 -3 -43 -5 -95 -5 l-95 0 19 48 c10
26 28 84 41 129 13 46 25 82 26 80 1 -1 10 -34 19 -72z m-1680 -103 l190 -59
6 -149 c4 -82 7 -232 7 -334 l0 -185 -29 200 c-15 110 -34 240 -41 290 l-13
89 -152 96 c-140 88 -173 110 -162 110 2 0 90 -26 194 -58z m2395 -913 c136
-12 271 -38 393 -75 129 -40 105 -49 -136 -50 l-202 -1 -80 -32 c-44 -18 -132
-60 -195 -93 -299 -160 -368 -184 -550 -195 -58 -3 -102 -3 -99 1 3 4 43 24
88 46 135 65 208 122 339 263 72 78 86 109 60 135 -16 16 217 16 382 1z
m-1492 -262 c22 -23 24 -29 12 -37 -27 -17 -141 -16 -199 2 l-33 10 50 44 c33
29 57 60 68 91 l18 46 29 -64 c15 -35 40 -77 55 -92z m-3833 -59 c395 -113
820 -594 950 -1073 34 -126 48 -260 34 -327 -12 -56 -35 -108 -47 -108 -4 0
-6 55 -4 122 3 97 -1 146 -18 228 -58 284 -234 586 -476 820 -207 198 -395
296 -609 316 l-70 7 49 23 c55 25 80 24 191 -8z m-191 -327 c452 -119 807
-566 833 -1047 9 -169 -16 -243 -97 -284 -22 -11 -54 -20 -72 -20 l-33 0 53
31 c29 17 51 33 50 35 -2 2 -26 -4 -53 -12 -37 -11 -71 -14 -130 -9 -308 24
-487 139 -683 435 -80 121 -136 231 -174 340 -30 87 -33 105 -33 220 0 116 2
129 28 184 15 32 25 61 22 64 -16 17 -93 -95 -97 -141 -4 -46 -18 -30 -18 21
0 51 34 135 66 164 48 42 76 49 169 45 50 -3 125 -15 169 -26z m6921 -222
c142 -45 260 -98 305 -136 27 -22 30 -31 30 -82 0 -81 25 -102 188 -156 137
-45 164 -82 122 -165 l-20 -40 -288 0 -288 0 -56 35 c-41 26 -76 62 -128 130
-77 101 -114 135 -199 181 -45 24 -113 89 -100 97 34 20 241 162 245 169 10
16 64 7 189 -33z"/>
<path d="M7662 4869 c-343 -81 -554 -153 -762 -261 -231 -118 -435 -281 -618
-492 -71 -82 -91 -111 -82 -120 9 -8 24 4 62 49 87 102 289 298 373 360 254
190 527 307 956 411 107 26 211 51 232 56 22 5 37 15 37 23 0 20 -11 19 -198
-26z"/>
<path d="M7830 4409 c-315 -38 -650 -125 -1033 -268 -214 -80 -219 -82 -208
-99 5 -9 46 2 162 47 440 168 809 262 1150 292 158 14 467 6 614 -15 76 -11
101 -12 107 -3 4 7 4 15 0 18 -30 27 -629 48 -792 28z"/>
<path d="M4920 4013 c-57 -22 -260 -119 -283 -135 -42 -30 -20 -42 39 -22 91
30 294 133 294 149 0 15 -22 18 -50 8z"/>
<path d="M5035 3775 c-22 -8 -45 -22 -52 -32 -43 -57 26 -151 154 -211 49 -23
71 -27 145 -27 78 0 89 2 112 24 48 45 25 121 -51 174 -103 71 -231 101 -308
72z"/>
<path d="M4957 3613 l4 -28 -14 24 c-20 33 -31 10 -17 -34 37 -112 283 -213
394 -160 20 10 41 25 46 35 8 15 1 16 -68 16 -120 0 -192 29 -272 109 -35 36
-67 65 -71 65 -3 0 -4 -12 -2 -27z"/>
<path d="M7310 2864 c-25 -2 -103 -9 -175 -15 -527 -44 -962 -166 -1123 -315
-39 -36 -44 -45 -32 -53 11 -8 24 -2 50 23 171 164 657 287 1290 326 261 16
661 8 798 -15 27 -5 32 -3 32 13 0 17 -10 21 -62 26 -74 7 -712 16 -778 10z"/>
<path d="M1555 1676 c-61 -80 -87 -219 -66 -353 43 -276 280 -555 535 -628 81
-24 225 -17 281 12 72 37 79 52 65 130 -36 209 -139 408 -297 574 -117 122
-227 200 -367 258 -115 48 -120 48 -151 7z m294 -476 c93 -68 120 -185 42
-180 -40 3 -41 2 -25 -35 23 -55 19 -93 -10 -101 -44 -11 -94 14 -144 72 -66
76 -103 143 -100 179 3 26 7 30 36 33 19 2 53 -3 78 -12 l44 -15 0 38 c0 61
17 66 79 21z"/>
<path d="M4474 4042 c-150 -73 -178 -88 -167 -95 5 -3 72 24 149 61 76 38 134
71 128 75 -6 3 -55 -15 -110 -41z"/>
<path d="M3766 3369 c-22 -5 -67 -23 -100 -40 -85 -43 -576 -332 -576 -339 0
-3 24 -11 53 -18 28 -7 102 -37 162 -66 407 -202 768 -698 839 -1154 6 -40 16
-73 21 -72 18 0 385 302 385 316 0 8 -9 47 -20 86 -11 40 -20 91 -20 113 0
100 102 161 203 120 14 -6 17 -1 17 30 0 48 -34 212 -60 295 -28 84 -109 255
-151 317 -104 154 -261 303 -382 365 -98 49 -269 71 -371 47z"/>
<path d="M0 935 l0 -25 595 0 c327 0 595 3 595 6 0 3 -5 14 -10 25 -10 18 -28
19 -595 19 l-585 0 0 -25z"/>
</g>
</svg>
