<?xml version="1.0" ?>
<!-- Uploaded to: SVG Repo, www.svgrepo.com, Generator: SVG Repo Mixer Tools -->
<svg width="800px" height="800px" viewBox="0 0 20 20" version="1.1" xmlns="http://www.w3.org/2000/svg">
<g id="layer1">
<path d="M 7,3 5,5 H 1 L 0,6 v 10 l 1,1 H 6.1914062 C 5.7656154,16.717196 5.3777083,16.381141 5.0371094,16 H 1.5 L 1,15.5 v -9 L 1.5,6 h 3.9140625 l 2,-2 h 4.1718755 l 2,2 H 18.5 L 19,6.5 v 9 L 18.5,16 h -4.535156 c -0.340599,0.381141 -0.728506,0.717196 -1.154297,1 H 19 l 1,-1 V 6 L 19,5 H 14 L 12,3 Z M 9.5,6 C 6.4624339,6 4,8.4624339 4,11.5 4,14.537566 6.4624339,17 9.5,17 12.537566,17 15,14.537566 15,11.5 15,8.4624339 12.537566,6 9.5,6 Z m 0,1 C 11.985281,7 14,9.0147186 14,11.5 14,13.985281 11.985281,16 9.5,16 7.0147186,16 5,13.985281 5,11.5 5,9.0147186 7.0147186,7 9.5,7 Z M 16,7 v 1 h 2 V 7 Z" style="fill:#222222; fill-opacity:1; stroke:none; stroke-width:0px;"/>
</g>
</svg>