<?xml version="1.0" standalone="no"?>
<!DOCTYPE svg PUBLIC "-//W3C//DTD SVG 20010904//EN"
 "http://www.w3.org/TR/2001/REC-SVG-20010904/DTD/svg10.dtd">
<svg version="1.0" xmlns="http://www.w3.org/2000/svg"
 width="640.000000pt" height="1280.000000pt" viewBox="0 0 640.000000 1280.000000"
 preserveAspectRatio="xMidYMid meet">
<metadata>
Created by potrace 1.15, written by Peter Selinger 2001-2017
</metadata>
<g transform="translate(0.000000,1280.000000) scale(0.100000,-0.100000)"
fill="#000000" stroke="none">
<path d="M2532 12790 c-194 -27 -338 -87 -421 -175 -66 -69 -105 -152 -135
-288 -23 -102 -24 -110 -11 -214 25 -199 45 -260 128 -380 31 -45 61 -102 68
-125 20 -76 -5 -223 -76 -438 l-25 -76 -122 -59 c-225 -111 -328 -192 -470
-369 -44 -56 -92 -107 -106 -114 -34 -19 -69 -10 -141 37 -85 55 -142 67 -220
47 -70 -18 -123 -43 -203 -97 -93 -64 -150 -149 -178 -267 -13 -58 -41 -84
-100 -97 -57 -12 -86 -32 -137 -92 -26 -31 -85 -96 -130 -144 -155 -166 -159
-146 344 -1594 347 -998 360 -1030 438 -1108 47 -48 130 -87 225 -106 l55 -11
340 128 c222 84 341 124 343 116 2 -6 -8 -76 -22 -155 -89 -506 -96 -745 -29
-932 14 -40 62 -144 108 -232 90 -173 123 -257 150 -377 16 -75 16 -78 -9
-205 -38 -191 -44 -240 -56 -448 -26 -471 -61 -644 -190 -940 -228 -522 -296
-802 -319 -1321 -8 -163 -6 -249 10 -474 10 -151 19 -325 19 -385 0 -63 6
-134 14 -165 14 -52 13 -56 -6 -77 -33 -36 -38 -87 -31 -363 7 -305 11 -325
69 -336 21 -4 142 -4 270 -1 230 5 233 5 345 41 240 74 461 119 638 128 51 3
54 1 63 -24 8 -24 6 -31 -20 -53 -46 -38 -58 -77 -44 -143 l11 -55 -39 -45
c-61 -69 -67 -102 -36 -195 21 -63 26 -96 26 -180 0 -86 4 -110 24 -152 13
-27 34 -60 47 -72 71 -65 243 -104 544 -123 99 -6 261 -22 360 -36 362 -50
805 -57 936 -15 159 50 242 201 175 316 -45 75 -138 124 -444 230 -229 79
-299 109 -392 169 -108 70 -188 156 -248 268 l-52 96 30 57 c57 108 34 197
-106 411 l-58 89 -32 485 c-41 612 -42 642 -8 717 46 105 55 157 43 253 l-11
85 45 46 c26 27 51 66 61 95 20 59 21 180 2 322 -9 61 -12 142 -9 195 6 107
-8 175 -63 295 l-35 77 -49 675 c-27 371 -56 794 -66 940 l-17 265 36 90 c49
123 57 181 55 390 -2 210 10 281 72 415 44 95 62 164 53 200 -7 32 -58 85 -94
100 -57 24 -67 153 -19 235 36 61 37 96 6 196 -29 90 -42 179 -56 402 -14 218
-31 323 -79 509 -37 138 -73 319 -67 325 1 2 24 -4 50 -13 66 -23 210 -15 289
15 127 49 186 127 209 273 l12 78 56 -8 c30 -4 123 -7 205 -6 134 1 163 4 269
32 66 17 123 35 126 39 10 11 38 362 52 642 10 188 9 290 -2 525 -8 160 -15
324 -15 364 l0 73 143 59 c79 33 160 62 180 66 21 4 50 21 72 43 20 20 50 44
68 53 17 9 37 32 45 50 17 41 56 68 96 68 38 0 73 41 91 106 7 27 18 52 24 56
19 13 58 9 70 -8 11 -14 46 -15 340 -8 l328 7 9 24 c5 13 9 48 9 77 l0 53 -97
13 c-131 16 -128 14 -105 47 33 47 90 167 97 205 9 47 -15 101 -66 148 l-41
38 35 11 c54 18 91 67 107 140 7 34 11 63 9 66 -7 7 -541 -76 -646 -100 -16
-4 -23 -13 -23 -29 0 -29 39 -22 -490 -87 l-425 -52 -37 -35 -37 -35 -65 28
c-100 42 -123 21 -62 -56 45 -56 36 -70 -15 -24 -37 33 -43 35 -107 35 -37 0
-73 5 -79 11 -7 7 -7 26 -2 56 11 55 -5 87 -48 97 -15 4 -35 16 -43 26 -13 16
-35 20 -173 26 -143 6 -159 5 -177 -11 -11 -10 -20 -28 -20 -40 0 -13 -7 -26
-16 -29 -24 -9 -27 -8 -20 18 8 32 -17 124 -55 199 -131 259 -339 414 -634
472 -94 19 -373 28 -463 15z m1077 -819 c10 -7 12 -23 6 -72 -11 -95 -35 -116
-61 -53 -17 39 -10 96 13 119 17 17 23 18 42 6z m-5 -634 c43 -103 46 -114 46
-200 0 -147 -19 -407 -46 -616 -13 -107 -26 -196 -29 -199 -2 -2 -66 43 -142
100 -247 188 -377 265 -573 343 -52 20 -98 40 -103 44 -12 12 126 165 180 199
78 50 130 58 302 43 178 -15 221 -8 252 42 17 26 19 46 17 112 -3 71 0 84 20
109 26 34 28 53 5 78 -15 17 -15 19 2 38 10 11 19 19 20 18 2 -2 23 -52 49
-111z m970 75 c15 -18 15 -21 -6 -60 -13 -23 -28 -42 -35 -42 -13 0 -28 81
-19 105 8 21 39 19 60 -3z m-183 -101 c4 -45 10 -85 14 -91 3 -5 24 -10 46
-10 21 0 39 -3 39 -7 -1 -5 -9 -33 -20 -63 -12 -35 -19 -82 -20 -130 0 -160
-39 -382 -101 -585 -29 -93 -32 -98 -44 -75 -7 14 -63 159 -125 323 l-112 298
40 43 c62 67 159 201 215 298 28 48 53 85 55 83 3 -2 8 -40 13 -84z m-217
-1195 c14 -37 26 -70 26 -72 0 -2 -13 -4 -30 -4 l-30 0 0 77 c0 42 2 74 4 72
2 -2 16 -35 30 -73z m-1425 -7881 c25 -193 102 -573 132 -652 5 -13 6 -23 3
-23 -2 0 -84 50 -180 111 l-176 112 6 176 c5 114 13 193 23 225 20 64 7 108
-52 174 l-45 50 45 389 c25 213 56 460 68 548 l23 160 58 7 c33 4 62 10 65 14
3 3 9 -266 12 -598 4 -362 11 -639 18 -693z"/>
</g>
</svg>
