<?xml version="1.0" standalone="no"?>
<!DOCTYPE svg PUBLIC "-//W3C//DTD SVG 20010904//EN"
 "http://www.w3.org/TR/2001/REC-SVG-20010904/DTD/svg10.dtd">
<svg version="1.0" xmlns="http://www.w3.org/2000/svg"
 width="1280.000000pt" height="1115.000000pt" viewBox="0 0 1280.000000 1115.000000"
 preserveAspectRatio="xMidYMid meet">
<metadata>
Created by potrace 1.15, written by Peter Selinger 2001-2017
</metadata>
<g transform="translate(0.000000,1115.000000) scale(0.100000,-0.100000)"
fill="#000000" stroke="none">
<path d="M5688 11134 c-319 -49 -628 -250 -805 -521 -47 -72 -112 -203 -136
-275 -5 -14 -18 -18 -57 -18 -32 0 -49 -4 -47 -11 2 -14 -119 -41 -415 -95
l-207 -37 -22 -51 c-46 -106 -22 -225 62 -300 36 -34 39 -40 39 -91 l0 -55
-85 0 c-76 0 -86 2 -109 25 -14 14 -37 25 -51 25 -17 0 -38 12 -59 35 l-33 35
-726 0 -727 0 -15 23 c-27 42 -55 47 -264 47 l-197 0 -29 30 c-15 16 -49 39
-74 52 -46 23 -47 23 -681 31 -349 4 -685 8 -747 10 l-112 2 -31 -30 c-61 -58
-102 -168 -137 -370 -14 -80 -17 -157 -17 -390 1 -490 40 -653 170 -715 41
-19 61 -21 150 -18 90 3 105 6 126 26 l24 22 586 0 c634 0 643 1 714 55 19 15
46 44 61 66 37 57 57 52 193 -39 101 -69 126 -82 205 -101 172 -43 258 -84
495 -239 80 -52 193 -119 253 -149 97 -48 203 -112 264 -160 64 -50 130 -522
168 -1193 31 -556 126 -993 260 -1194 19 -29 35 -60 35 -69 0 -34 80 -241 127
-328 2 -3 -38 -8 -90 -11 -108 -6 -168 -29 -274 -104 -194 -138 -327 -318
-385 -521 -33 -113 -33 -339 0 -468 32 -125 115 -289 214 -420 96 -129 360
-397 531 -539 301 -250 750 -563 1156 -806 120 -71 376 -243 615 -412 226
-160 413 -292 415 -294 2 -2 -9 -9 -24 -16 -40 -18 -65 -76 -65 -151 0 -52 7
-80 40 -156 l40 -92 -176 -352 c-97 -193 -177 -353 -178 -354 -1 -1 -33 2 -71
7 -59 7 -82 5 -158 -15 -91 -25 -146 -52 -232 -115 -54 -40 -80 -66 -87 -90
-6 -18 9 -50 23 -50 5 0 34 -16 64 -35 52 -33 61 -35 237 -55 486 -54 774 -63
1075 -34 151 14 172 18 251 53 l86 38 1 75 c0 66 3 79 28 111 33 43 143 99
229 117 47 9 92 35 271 155 119 79 243 158 278 175 l62 32 65 -22 c113 -37
286 -62 437 -63 l140 -2 60 33 c33 18 103 66 155 108 82 65 139 97 419 235
178 88 325 158 326 157 1 -2 10 -124 19 -273 35 -569 76 -927 112 -982 32 -49
114 -41 174 16 41 39 103 158 115 221 5 28 -2 54 -35 129 l-41 93 1 287 c0
157 -4 345 -9 416 -13 162 -13 218 -2 211 31 -20 331 -34 441 -22 l65 8 24
-96 c23 -91 24 -105 17 -303 -3 -114 -9 -248 -12 -298 -5 -71 -3 -94 9 -110
15 -19 16 -19 104 -1 164 34 184 58 181 216 -1 90 3 123 31 230 18 69 36 131
40 138 4 8 53 -44 136 -145 72 -86 133 -162 138 -169 4 -7 2 -55 -4 -107 l-12
-94 72 -91 c41 -52 82 -94 94 -97 54 -11 341 -35 426 -35 l94 0 308 168 c277
151 308 170 313 196 20 97 -12 375 -57 499 -13 34 -39 87 -60 118 -55 84 -175
205 -240 243 -47 28 -70 51 -117 121 -56 81 -59 88 -53 133 7 64 -11 152 -48
233 l-31 68 42 388 c23 213 44 394 46 402 4 11 19 1 51 -31 l46 -46 5 -181 c3
-100 7 -181 11 -181 3 0 42 9 86 19 l80 18 -2 99 c-2 54 -8 162 -14 239 l-11
140 -84 112 c-46 62 -84 119 -84 128 0 18 1 18 174 3 l139 -12 32 37 c18 20
34 37 37 37 3 0 17 -18 31 -39 l27 -40 -50 -58 c-27 -31 -48 -58 -47 -59 1 -1
29 -25 61 -53 l59 -51 46 26 c66 38 70 43 82 109 6 33 12 61 14 63 10 10 65
-32 70 -53 3 -14 8 -37 11 -52 3 -16 10 -34 16 -40 14 -17 57 -16 88 2 15 9
55 15 100 15 41 1 95 7 120 13 l45 12 6 95 c4 52 10 157 13 233 l7 137 -26 10
c-14 6 -25 17 -25 28 0 15 9 21 41 25 22 3 42 7 44 9 2 2 -1 38 -7 79 l-11 77
-69 4 c-38 3 -71 7 -73 10 -2 2 5 53 15 113 11 59 20 110 20 112 0 4 -70 33
-80 33 -4 0 -15 -56 -26 -125 l-18 -125 -74 0 -74 0 4 -58 c2 -31 8 -65 12
-74 7 -15 3 -18 -18 -18 -19 0 -26 -5 -26 -20 0 -11 -3 -20 -7 -19 -5 0 -55
22 -113 48 l-105 48 -3 39 c-7 96 -47 161 -125 201 -46 24 -65 28 -172 31
-115 3 -125 5 -237 49 -95 37 -118 50 -122 69 -9 35 -114 137 -167 162 -49 22
-88 29 -311 58 l-137 18 -84 85 c-74 75 -85 91 -90 129 l-5 42 151 0 152 0
137 61 c125 57 142 68 209 135 l73 74 -162 0 c-238 0 -445 28 -652 88 l-65 19
-5 85 c-4 68 -10 92 -29 120 -35 51 -81 78 -153 90 l-64 11 -88 122 c-48 67
-130 199 -181 294 -88 161 -95 180 -120 294 -14 67 -48 181 -74 252 -36 95
-51 149 -55 202 -2 40 -16 115 -30 165 -15 51 -30 111 -36 133 -8 35 -17 44
-67 70 l-58 30 -193 459 -193 460 12 138 c34 390 -74 726 -304 945 -204 193
-462 301 -832 348 -112 14 -159 15 -350 5 -247 -12 -299 -19 -435 -55 -118
-31 -128 -31 -142 -1 -9 21 -6 32 20 73 99 154 76 287 -67 396 l-48 37 10 48
c18 86 13 317 -10 422 -28 128 -74 251 -131 349 -252 434 -730 662 -1224 585z
m-1588 -2249 c0 -9 9 -15 25 -15 l26 0 -3 -115 c-2 -67 -7 -116 -13 -117 -5 0
-40 55 -77 123 -64 121 -67 124 -105 130 -25 4 -7 7 55 8 76 1 92 -2 92 -14z
m-1342 -212 c41 -109 42 -133 4 -133 -32 0 -140 36 -222 73 -30 14 -98 32
-150 41 -52 9 -101 23 -109 31 -14 13 12 15 226 15 l241 0 10 -27z m2432 -381
c95 -193 100 -208 83 -220 -151 -108 -209 -156 -323 -271 -75 -75 -168 -180
-208 -233 -173 -231 -333 -531 -432 -806 -18 -48 -25 -60 -32 -48 -5 8 -82
235 -172 503 -272 811 -290 860 -350 970 -31 56 -56 106 -56 110 0 15 329 178
338 168 4 -6 28 -34 51 -62 l43 -53 297 0 296 0 95 95 c81 81 99 95 127 95 18
0 33 4 33 9 0 5 24 -4 54 -20 l55 -30 101 -207z m711 -2972 c136 -327 247
-595 245 -597 -2 -2 -36 15 -77 38 -41 24 -125 67 -187 97 l-114 55 -196 -15
-197 -14 -340 77 c-187 43 -369 83 -405 91 l-64 13 69 45 c39 25 106 81 150
125 l80 79 115 -3 c126 -3 231 14 297 48 85 43 131 130 119 223 -8 58 8 101
66 176 44 56 166 164 181 159 5 -1 121 -270 258 -597z m4633 -710 c6 -36 2
-47 -25 -86 -18 -24 -34 -44 -35 -44 -2 0 -13 18 -24 41 l-21 40 41 50 c23 27
45 47 50 44 4 -2 10 -23 14 -45z m86 -125 c0 -7 -13 -15 -30 -17 -34 -5 -36
-1 -14 30 13 18 19 21 30 11 8 -6 14 -17 14 -24z m-3843 -2361 c64 -19 150
-51 190 -69 l73 -34 0 -82 c0 -64 -3 -79 -12 -72 -7 5 -92 70 -188 143 -189
144 -197 150 -188 150 4 0 60 -16 125 -36z"/>
</g>
</svg>
